<svg width="65" height="65" viewBox="0 0 65 65" fill="none" xmlns="http://www.w3.org/2000/svg">
<rect width="65" height="65" rx="10" fill="#8C11BE"/>
<path d="M4.08 21.944V20.984H9.968L19.184 40.568L18.128 43H13.968L4.08 21.944ZM22.16 33.752H22.032L19.888 38.936L17.136 33.048L22.16 20.984H28.24V43H22.16V33.752ZM4.08 25.112L9.968 37.656V43H4.08V25.112ZM35.6245 42.072C35.4752 41.4747 35.2832 40.6427 35.0485 39.576L34.1845 36.056L33.2245 32.024L30.6325 20.984H37.0005L41.5445 43H35.8485L35.6245 42.072ZM40.6485 31.992L43.0485 20.984H49.6085L54.8565 43H49.3845L49.1285 41.944L48.4565 39.16L47.4965 35.096C47.0912 33.4533 46.7072 31.8427 46.3445 30.264H46.1525L45.0645 35.096L44.7125 36.728C44.6058 37.176 44.4992 37.6027 44.3925 38.008C44.3072 38.4133 44.2218 38.7973 44.1365 39.16L43.4965 41.944L43.2405 43H42.8885L40.6485 31.992ZM53.5765 31.8L55.4965 20.984H61.8645L59.2405 32.024L58.2805 36.056C57.8752 37.6987 57.5978 38.872 57.4485 39.576L56.8405 42.072L56.6165 43H56.2325L53.5765 31.8Z" fill="white"/>
</svg>
